<svg width="57" height="68" viewBox="0 0 57 68" fill="none" xmlns="http://www.w3.org/2000/svg">
<g id="Group">
<g id="Group_2">
<path id="Vector" d="M2.12524 59.6555C2.66734 60.4516 3.35696 61.1623 4.10086 61.7741C8.5616 65.444 15.2007 65.9169 20.4198 63.4506C25.639 60.9853 29.3911 55.8876 30.8355 50.2861C31.9685 45.8946 31.6626 40.8705 28.8608 37.3104C27.1304 35.112 24.5204 33.6288 21.7502 33.2702C18.9365 32.9053 15.3292 34.6009 15.6568 37.4266C15.7817 38.5041 16.4731 39.429 17.2369 40.196C21.1891 44.1645 27.496 45.0931 32.879 43.5682C38.2619 42.0441 42.824 38.4079 46.6277 34.295C50.3898 30.2285 53.6759 25.3087 54.0397 19.7726C54.4949 12.8477 49.7563 5.96359 43.1923 3.76966C40.9624 3.02443 38.1614 3.03442 36.2818 4.20264" stroke="#8678DE" stroke-width="4.829" stroke-miterlimit="10"/>
</g>
</g>
</svg>
