<svg width="70" height="103" viewBox="0 0 70 103" fill="none" xmlns="http://www.w3.org/2000/svg">
<g id="Group">
<g id="Group_2">
<path id="Vector" d="M53.324 100.745C52.2805 100.093 51.2687 99.391 50.2967 98.644C41.835 92.1411 35.7896 81.835 36.3932 71.1603C36.9968 60.4866 45.4224 50.1913 56.0525 49.3862C58.7974 49.1783 61.6735 49.6068 63.9731 51.1235C66.2727 52.6403 67.8754 55.3807 67.5496 58.122C67.2021 61.0439 64.8618 63.3295 62.3776 64.8944C51.7493 71.5924 37.5154 69.0417 26.593 62.8366C17.3375 57.5792 9.31289 49.6612 5.38158 39.7481C2.14077 31.5769 1.84212 22.2684 4.5526 13.9065C5.50284 10.9737 6.89835 8.04365 9.33462 6.16197C11.3872 4.5762 13.9908 3.88452 16.561 3.5523C17.1511 3.47606 17.7502 3.42069 18.3538 3.38892" stroke="#8678DE" stroke-width="4.829" stroke-miterlimit="10"/>
</g>
</g>
</svg>
